<?xml version="1.0" encoding="utf-8"?>
<!-- Generator: Adobe Illustrator 23.0.0, SVG Export Plug-In . SVG Version: 6.00 Build 0)  -->
<svg version="1.1" xmlns="http://www.w3.org/2000/svg" xmlns:xlink="http://www.w3.org/1999/xlink" x="0px" y="0px"
	 viewBox="0 0 1920 1100" style="enable-background:new 0 0 1920 1100;" xml:space="preserve">
<style type="text/css">
	.st0{display:none;}
	.st1{display:inline;fill:#D32A77;}
	.st2{display:inline;fill:#CC3B3B;}
	.st3{fill:url(#SVGID_1_);}
	.st4{fill:url(#SVGID_2_);}
	.st5{fill:url(#SVGID_3_);}
	.st6{display:inline;fill:#ED079B;}
	.st7{display:inline;fill:#B50B89;}
	.st8{display:inline;fill:#F45BD3;}
	.st9{display:inline;}
	.st10{fill:url(#SVGID_4_);}
	.st11{fill:url(#SVGID_5_);}
	.st12{fill:url(#SVGID_6_);}
	.st13{display:inline;fill:#4FCFED;}
	.st14{display:inline;fill:#1BB1C9;}
	.st15{display:inline;fill:#16DB74;}
	.st16{display:inline;fill:#E52875;}
	.st17{display:inline;fill:#2256D8;}
	.st18{font-family:'TitilliumWeb-Bold';}
	.st19{font-size:42px;}
	.st20{font-size:24px;}
	.st21{font-size:26px;}
	.st22{font-size:53px;}
	.st23{fill:#494949;}
	.st24{font-family:'TitilliumWeb-Regular';}
	.st25{font-size:15px;}
	.st26{fill:#2256D8;}
	.st27{fill:#FFFFFF;}
	.st28{font-size:32px;}
	.st29{display:inline;fill:#FFFFFF;}
	.st30{font-size:48px;}
	.st31{font-family:'TitilliumWeb-SemiBold';}
	.st32{font-size:21px;}
</style>
<g id="Grid" class="st0">
	<rect x="210" y="438" class="st1" width="150" height="233"/>
	<rect x="682" y="100" class="st2" width="86" height="144"/>
	<rect x="684" y="956" class="st2" width="86" height="144"/>
</g>
<g id="Background-color">
	<linearGradient id="SVGID_1_" gradientUnits="userSpaceOnUse" x1="205.1843" y1="1014.0106" x2="1838.8192" y2="9.7603">
		<stop  offset="0" style="stop-color:#2256D8"/>
		<stop  offset="1" style="stop-color:#45A2EF"/>
	</linearGradient>
	<rect x="0" class="st3" width="1920" height="1100"/>
</g>
<g id="Organic_Shapes_Background">
	<linearGradient id="SVGID_2_" gradientUnits="userSpaceOnUse" x1="1" y1="399.2166" x2="795" y2="399.2166">
		<stop  offset="0" style="stop-color:#1460D5"/>
		<stop  offset="1" style="stop-color:#45A2EF"/>
	</linearGradient>
	<path class="st4" d="M1,1v759l138,34.1c96.1,23.7,187.5-52.8,181.1-151.5l-6.5-100.7c-10.3-159,133.4-284.3,289.5-252.2l0,0
		c84.6,17.4,165.8-42,174.9-127.9L795,0L1,1z"/>
	<linearGradient id="SVGID_3_" gradientUnits="userSpaceOnUse" x1="1475.2944" y1="608.9394" x2="1920" y2="608.9394">
		<stop  offset="0" style="stop-color:#2256D8"/>
		<stop  offset="1" style="stop-color:#3F86FF"/>
	</linearGradient>
	<path class="st5" d="M1920,348l-33.8-12.1c-62.4-22.3-129.7,17.7-139.9,83.1l0,0c-5.7,36.6-30.2,67.5-64.5,81.5l-140.7,57.4
		c-57.9,23.6-82.7,92-53.5,147.3l39.7,75c36.5,69,109.3,110.9,187.3,107.9l205.4-8V348z"/>
</g>
<g id="container" class="st0">
	<rect x="360" y="245" class="st6" width="1200" height="711"/>
</g>
<g id="bordas-container" class="st0">
	<rect x="360" y="245" class="st7" width="20" height="711"/>
	<rect x="1540" y="245" class="st7" width="20" height="711"/>
	<rect x="360" y="245" class="st7" width="1200" height="20"/>
	<rect x="360" y="936" class="st7" width="1200" height="20"/>
</g>
<g id="pacotes-container" class="st0">
	<rect x="380" y="265" class="st8" width="373" height="671"/>
	<rect x="773" y="265" class="st8" width="373" height="671"/>
	<rect x="1166" y="265" class="st8" width="373" height="671"/>
</g>
<g id="Pacotes-container-arte" class="st0">
	<g class="st9">
		<g>
			<image style="overflow:visible;" width="445" height="743" xlink:href="8DB2DF72.png"  transform="matrix(1 0 0 1 350 235)">
			</image>
		</g>
		<linearGradient id="SVGID_4_" gradientUnits="userSpaceOnUse" x1="461.7274" y1="507.9646" x2="741.2991" y2="754.883">
			<stop  offset="0" style="stop-color:#FFFFFF"/>
			<stop  offset="0.4319" style="stop-color:#FCFCFC"/>
			<stop  offset="0.6892" style="stop-color:#F5F5F5"/>
		</linearGradient>
		<path class="st10" d="M713.7,936H419.3c-21.7,0-39.3-17.6-39.3-39.3V304.3c0-21.7,17.6-39.3,39.3-39.3h294.4
			c21.7,0,39.3,17.6,39.3,39.3v592.4C753,918.4,735.4,936,713.7,936z"/>
	</g>
	<g class="st9">
		<g>
			<image style="overflow:visible;" width="445" height="743" xlink:href="8DB2DF76.png"  transform="matrix(1 0 0 1 743 235)">
			</image>
		</g>
		<linearGradient id="SVGID_5_" gradientUnits="userSpaceOnUse" x1="854.7274" y1="507.9646" x2="1134.2991" y2="754.883">
			<stop  offset="0" style="stop-color:#FFFFFF"/>
			<stop  offset="0.4319" style="stop-color:#FCFCFC"/>
			<stop  offset="0.6892" style="stop-color:#F5F5F5"/>
		</linearGradient>
		<path class="st11" d="M1106.7,936H812.3c-21.7,0-39.3-17.6-39.3-39.3V304.3c0-21.7,17.6-39.3,39.3-39.3h294.4
			c21.7,0,39.3,17.6,39.3,39.3v592.4C1146,918.4,1128.4,936,1106.7,936z"/>
	</g>
	<g class="st9">
		<g>
			<image style="overflow:visible;" width="445" height="743" xlink:href="8DB2DF71.png"  transform="matrix(1 0 0 1 1136 235)">
			</image>
		</g>
		<linearGradient id="SVGID_6_" gradientUnits="userSpaceOnUse" x1="1247.7274" y1="507.9646" x2="1527.2991" y2="754.883">
			<stop  offset="0" style="stop-color:#FFFFFF"/>
			<stop  offset="0.4319" style="stop-color:#FCFCFC"/>
			<stop  offset="0.6892" style="stop-color:#F5F5F5"/>
		</linearGradient>
		<path class="st12" d="M1499.7,936h-294.4c-21.7,0-39.3-17.6-39.3-39.3V304.3c0-21.7,17.6-39.3,39.3-39.3h294.4
			c21.7,0,39.3,17.6,39.3,39.3v592.4C1539,918.4,1521.4,936,1499.7,936z"/>
	</g>
</g>
<g id="Bordas_pacores-arte" class="st0">
	<rect x="380" y="265" class="st13" width="50" height="671"/>
	<rect x="703" y="265" class="st13" width="50" height="671"/>
	<rect x="773" y="265" class="st13" width="50" height="671"/>
	<rect x="1096" y="265" class="st13" width="50" height="671"/>
	<rect x="1166" y="265" class="st13" width="50" height="671"/>
	<rect x="1489" y="265" class="st13" width="50" height="671"/>
	<rect x="380" y="265" class="st14" width="373" height="50"/>
	<rect x="773" y="265" class="st14" width="373" height="50"/>
	<rect x="1166" y="265" class="st14" width="373" height="50"/>
	<rect x="380" y="886" class="st14" width="373" height="50"/>
	<rect x="773" y="886" class="st14" width="373" height="50"/>
	<rect x="1166" y="886" class="st14" width="373" height="50"/>
	<rect x="380" y="265" class="st15" width="186" height="50"/>
	<rect x="773" y="265" class="st15" width="186" height="50"/>
	<rect x="1166" y="265" class="st15" width="186" height="50"/>
	<rect x="430" y="691" class="st16" width="28" height="33"/>
	<rect x="823" y="691" class="st16" width="28" height="33"/>
	<rect x="1216" y="652" class="st16" width="28" height="33"/>
</g>
<g id="Texto" class="st0">
	<text transform="matrix(1 0 0 1 507.6226 355.6831)" class="st17 st18 st19">Básico</text>
	<text transform="matrix(1 0 0 1 459.1387 397.4556)" class="st17 st18 st20">Facebook/Instagram</text>
	<text transform="matrix(1 0 0 1 834.8174 357.6831)" class="st17 st18 st19">Intermediário</text>
	<text transform="matrix(1 0 0 1 852.1387 397.4556)" class="st17 st18 st20">Facebook/Instagram</text>
	<text transform="matrix(1 0 0 1 1262.769 356.6831)" class="st17 st18 st19">Avançado</text>
	<text transform="matrix(1 0 0 1 1244.1387 396.4556)" class="st17 st18 st20">Facebook/Instagram</text>
	<text transform="matrix(1 0 0 1 471.5 479.5)" class="st17 st18 st21">R$</text>
	<text transform="matrix(1 0 0 1 497.5 486.5)" class="st17 st18 st22">350,00</text>
	<text transform="matrix(1 0 0 1 863.5 479.5)" class="st17 st18 st21">R$</text>
	<text transform="matrix(1 0 0 1 891.5 486.5)" class="st17 st18 st22">490,00</text>
	<text transform="matrix(1 0 0 1 1257.5 479.5)" class="st17 st18 st21">R$</text>
	<text transform="matrix(1 0 0 1 1283.5 486.5)" class="st17 st18 st22">790,00</text>
	<text transform="matrix(1 0 0 1 466.1187 552.6533)" class="st9"><tspan x="0" y="0" class="st23 st24 st25">2 postagens por semana.</tspan><tspan x="0" y="33" class="st23 st24 st25">Personalização dos perfis.</tspan><tspan x="0" y="66" class="st23 st24 st25">Criação e planegamento do conteúdo.</tspan><tspan x="0" y="99" class="st23 st24 st25">Relatório de resultados.</tspan><tspan x="0" y="132" class="st23 st24 st25">Gestão de Facebook Adwords.</tspan></text>
	<g class="st9">
		<g>
			<path class="st26" d="M455.5,538l-2.3-2.3c-0.3-0.3-0.7-0.5-1.1-0.5c-0.4,0-0.8,0.2-1.1,0.5l-11,11.1l-4.9-5
				c-0.3-0.3-0.7-0.5-1.1-0.5c-0.4,0-0.8,0.2-1.1,0.5l-2.3,2.3c-0.3,0.3-0.5,0.7-0.5,1.1c0,0.4,0.2,0.8,0.5,1.1l6.1,6.1l2.3,2.3
				c0.3,0.3,0.7,0.5,1.1,0.5c0.4,0,0.8-0.2,1.1-0.5l2.3-2.3l12.1-12.2c0.3-0.3,0.5-0.7,0.5-1.1C456,538.7,455.8,538.3,455.5,538z"/>
		</g>
	</g>
	<g class="st9">
		<g>
			<path class="st26" d="M455.5,571l-2.3-2.3c-0.3-0.3-0.7-0.5-1.1-0.5c-0.4,0-0.8,0.2-1.1,0.5l-11,11.1l-4.9-5
				c-0.3-0.3-0.7-0.5-1.1-0.5c-0.4,0-0.8,0.2-1.1,0.5l-2.3,2.3c-0.3,0.3-0.5,0.7-0.5,1.1c0,0.4,0.2,0.8,0.5,1.1l6.1,6.1l2.3,2.3
				c0.3,0.3,0.7,0.5,1.1,0.5c0.4,0,0.8-0.2,1.1-0.5l2.3-2.3l12.1-12.2c0.3-0.3,0.5-0.7,0.5-1.1C456,571.7,455.8,571.3,455.5,571z"/>
		</g>
	</g>
	<g class="st9">
		<g>
			<path class="st26" d="M455.5,604l-2.3-2.3c-0.3-0.3-0.7-0.5-1.1-0.5c-0.4,0-0.8,0.2-1.1,0.5l-11,11.1l-4.9-5
				c-0.3-0.3-0.7-0.5-1.1-0.5c-0.4,0-0.8,0.2-1.1,0.5l-2.3,2.3c-0.3,0.3-0.5,0.7-0.5,1.1c0,0.4,0.2,0.8,0.5,1.1l6.1,6.1l2.3,2.3
				c0.3,0.3,0.7,0.5,1.1,0.5c0.4,0,0.8-0.2,1.1-0.5l2.3-2.3l12.1-12.2c0.3-0.3,0.5-0.7,0.5-1.1C456,604.7,455.8,604.3,455.5,604z"/>
		</g>
	</g>
	<g class="st9">
		<g>
			<path class="st26" d="M455.5,635l-2.3-2.3c-0.3-0.3-0.7-0.5-1.1-0.5c-0.4,0-0.8,0.2-1.1,0.5l-11,11.1l-4.9-5
				c-0.3-0.3-0.7-0.5-1.1-0.5c-0.4,0-0.8,0.2-1.1,0.5l-2.3,2.3c-0.3,0.3-0.5,0.7-0.5,1.1c0,0.4,0.2,0.8,0.5,1.1l6.1,6.1l2.3,2.3
				c0.3,0.3,0.7,0.5,1.1,0.5c0.4,0,0.8-0.2,1.1-0.5l2.3-2.3l12.1-12.2c0.3-0.3,0.5-0.7,0.5-1.1C456,635.7,455.8,635.3,455.5,635z"/>
		</g>
	</g>
	<g class="st9">
		<g>
			<path class="st26" d="M455.5,669l-2.3-2.3c-0.3-0.3-0.7-0.5-1.1-0.5c-0.4,0-0.8,0.2-1.1,0.5l-11,11.1l-4.9-5
				c-0.3-0.3-0.7-0.5-1.1-0.5c-0.4,0-0.8,0.2-1.1,0.5l-2.3,2.3c-0.3,0.3-0.5,0.7-0.5,1.1c0,0.4,0.2,0.8,0.5,1.1l6.1,6.1l2.3,2.3
				c0.3,0.3,0.7,0.5,1.1,0.5c0.4,0,0.8-0.2,1.1-0.5l2.3-2.3l12.1-12.2c0.3-0.3,0.5-0.7,0.5-1.1C456,669.7,455.8,669.3,455.5,669z"/>
		</g>
	</g>
	<text transform="matrix(1 0 0 1 859.1187 556.6533)" class="st9"><tspan x="0" y="0" class="st23 st24 st25">2 postagens por semana.</tspan><tspan x="0" y="33" class="st23 st24 st25">Personalização dos perfis.</tspan><tspan x="0" y="66" class="st23 st24 st25">Criação e planegamento do conteúdo.</tspan><tspan x="0" y="99" class="st23 st24 st25">Relatório de resultados.</tspan><tspan x="0" y="132" class="st23 st24 st25">Gestão de Facebook.</tspan><tspan x="0" y="165" class="st23 st24 st25">Mini vídeoclip pensal de 30’.</tspan></text>
	<g class="st9">
		<g>
			<path class="st26" d="M848.5,542l-2.3-2.3c-0.3-0.3-0.7-0.5-1.1-0.5c-0.4,0-0.8,0.2-1.1,0.5l-11,11.1l-4.9-5
				c-0.3-0.3-0.7-0.5-1.1-0.5c-0.4,0-0.8,0.2-1.1,0.5l-2.3,2.3c-0.3,0.3-0.5,0.7-0.5,1.1c0,0.4,0.2,0.8,0.5,1.1l6.1,6.1l2.3,2.3
				c0.3,0.3,0.7,0.5,1.1,0.5c0.4,0,0.8-0.2,1.1-0.5l2.3-2.3l12.1-12.2c0.3-0.3,0.5-0.7,0.5-1.1C849,542.7,848.8,542.3,848.5,542z"/>
		</g>
	</g>
	<g class="st9">
		<g>
			<path class="st26" d="M848.5,575l-2.3-2.3c-0.3-0.3-0.7-0.5-1.1-0.5c-0.4,0-0.8,0.2-1.1,0.5l-11,11.1l-4.9-5
				c-0.3-0.3-0.7-0.5-1.1-0.5c-0.4,0-0.8,0.2-1.1,0.5l-2.3,2.3c-0.3,0.3-0.5,0.7-0.5,1.1c0,0.4,0.2,0.8,0.5,1.1l6.1,6.1l2.3,2.3
				c0.3,0.3,0.7,0.5,1.1,0.5c0.4,0,0.8-0.2,1.1-0.5l2.3-2.3l12.1-12.2c0.3-0.3,0.5-0.7,0.5-1.1C849,575.7,848.8,575.3,848.5,575z"/>
		</g>
	</g>
	<g class="st9">
		<g>
			<path class="st26" d="M848.5,608l-2.3-2.3c-0.3-0.3-0.7-0.5-1.1-0.5c-0.4,0-0.8,0.2-1.1,0.5l-11,11.1l-4.9-5
				c-0.3-0.3-0.7-0.5-1.1-0.5c-0.4,0-0.8,0.2-1.1,0.5l-2.3,2.3c-0.3,0.3-0.5,0.7-0.5,1.1c0,0.4,0.2,0.8,0.5,1.1l6.1,6.1l2.3,2.3
				c0.3,0.3,0.7,0.5,1.1,0.5c0.4,0,0.8-0.2,1.1-0.5l2.3-2.3l12.1-12.2c0.3-0.3,0.5-0.7,0.5-1.1C849,608.7,848.8,608.3,848.5,608z"/>
		</g>
	</g>
	<g class="st9">
		<g>
			<path class="st26" d="M848.5,639l-2.3-2.3c-0.3-0.3-0.7-0.5-1.1-0.5c-0.4,0-0.8,0.2-1.1,0.5l-11,11.1l-4.9-5
				c-0.3-0.3-0.7-0.5-1.1-0.5c-0.4,0-0.8,0.2-1.1,0.5l-2.3,2.3c-0.3,0.3-0.5,0.7-0.5,1.1c0,0.4,0.2,0.8,0.5,1.1l6.1,6.1l2.3,2.3
				c0.3,0.3,0.7,0.5,1.1,0.5c0.4,0,0.8-0.2,1.1-0.5l2.3-2.3l12.1-12.2c0.3-0.3,0.5-0.7,0.5-1.1C849,639.7,848.8,639.3,848.5,639z"/>
		</g>
	</g>
	<g class="st9">
		<g>
			<path class="st26" d="M848.5,673l-2.3-2.3c-0.3-0.3-0.7-0.5-1.1-0.5c-0.4,0-0.8,0.2-1.1,0.5l-11,11.1l-4.9-5
				c-0.3-0.3-0.7-0.5-1.1-0.5c-0.4,0-0.8,0.2-1.1,0.5l-2.3,2.3c-0.3,0.3-0.5,0.7-0.5,1.1c0,0.4,0.2,0.8,0.5,1.1l6.1,6.1l2.3,2.3
				c0.3,0.3,0.7,0.5,1.1,0.5c0.4,0,0.8-0.2,1.1-0.5l2.3-2.3l12.1-12.2c0.3-0.3,0.5-0.7,0.5-1.1C849,673.7,848.8,673.3,848.5,673z"/>
		</g>
	</g>
	<g class="st9">
		<g>
			<path class="st26" d="M848.5,705l-2.3-2.3c-0.3-0.3-0.7-0.5-1.1-0.5c-0.4,0-0.8,0.2-1.1,0.5l-11,11.1l-4.9-5
				c-0.3-0.3-0.7-0.5-1.1-0.5c-0.4,0-0.8,0.2-1.1,0.5l-2.3,2.3c-0.3,0.3-0.5,0.7-0.5,1.1c0,0.4,0.2,0.8,0.5,1.1l6.1,6.1l2.3,2.3
				c0.3,0.3,0.7,0.5,1.1,0.5c0.4,0,0.8-0.2,1.1-0.5l2.3-2.3l12.1-12.2c0.3-0.3,0.5-0.7,0.5-1.1C849,705.7,848.8,705.3,848.5,705z"/>
		</g>
	</g>
	<text transform="matrix(1 0 0 1 1252.1187 556.6533)" class="st9"><tspan x="0" y="0" class="st23 st24 st25">2 postagens por semana.</tspan><tspan x="0" y="33" class="st23 st24 st25">Personalização dos perfis.</tspan><tspan x="0" y="66" class="st23 st24 st25">Criação e planegamento do conteúdo.</tspan><tspan x="0" y="99" class="st23 st24 st25">Relatório de resultados.</tspan><tspan x="0" y="132" class="st23 st24 st25">Gestão de Facebook.</tspan><tspan x="0" y="165" class="st23 st24 st25">Mini vídeoclip pensal de 30’.</tspan><tspan x="0" y="198" class="st23 st24 st25">Suporte em 1 evento Bimestral.</tspan></text>
	<g class="st9">
		<g>
			<path class="st26" d="M1241.5,542l-2.3-2.3c-0.3-0.3-0.7-0.5-1.1-0.5c-0.4,0-0.8,0.2-1.1,0.5l-11,11.1l-4.9-5
				c-0.3-0.3-0.7-0.5-1.1-0.5c-0.4,0-0.8,0.2-1.1,0.5l-2.3,2.3c-0.3,0.3-0.5,0.7-0.5,1.1c0,0.4,0.2,0.8,0.5,1.1l6.1,6.1l2.3,2.3
				c0.3,0.3,0.7,0.5,1.1,0.5c0.4,0,0.8-0.2,1.1-0.5l2.3-2.3l12.1-12.2c0.3-0.3,0.5-0.7,0.5-1.1C1242,542.7,1241.8,542.3,1241.5,542z
				"/>
		</g>
	</g>
	<g class="st9">
		<g>
			<path class="st26" d="M1241.5,575l-2.3-2.3c-0.3-0.3-0.7-0.5-1.1-0.5c-0.4,0-0.8,0.2-1.1,0.5l-11,11.1l-4.9-5
				c-0.3-0.3-0.7-0.5-1.1-0.5c-0.4,0-0.8,0.2-1.1,0.5l-2.3,2.3c-0.3,0.3-0.5,0.7-0.5,1.1c0,0.4,0.2,0.8,0.5,1.1l6.1,6.1l2.3,2.3
				c0.3,0.3,0.7,0.5,1.1,0.5c0.4,0,0.8-0.2,1.1-0.5l2.3-2.3l12.1-12.2c0.3-0.3,0.5-0.7,0.5-1.1C1242,575.7,1241.8,575.3,1241.5,575z
				"/>
		</g>
	</g>
	<g class="st9">
		<g>
			<path class="st26" d="M1241.5,608l-2.3-2.3c-0.3-0.3-0.7-0.5-1.1-0.5c-0.4,0-0.8,0.2-1.1,0.5l-11,11.1l-4.9-5
				c-0.3-0.3-0.7-0.5-1.1-0.5c-0.4,0-0.8,0.2-1.1,0.5l-2.3,2.3c-0.3,0.3-0.5,0.7-0.5,1.1c0,0.4,0.2,0.8,0.5,1.1l6.1,6.1l2.3,2.3
				c0.3,0.3,0.7,0.5,1.1,0.5c0.4,0,0.8-0.2,1.1-0.5l2.3-2.3l12.1-12.2c0.3-0.3,0.5-0.7,0.5-1.1C1242,608.7,1241.8,608.3,1241.5,608z
				"/>
		</g>
	</g>
	<g class="st9">
		<g>
			<path class="st26" d="M1241.5,639l-2.3-2.3c-0.3-0.3-0.7-0.5-1.1-0.5c-0.4,0-0.8,0.2-1.1,0.5l-11,11.1l-4.9-5
				c-0.3-0.3-0.7-0.5-1.1-0.5c-0.4,0-0.8,0.2-1.1,0.5l-2.3,2.3c-0.3,0.3-0.5,0.7-0.5,1.1c0,0.4,0.2,0.8,0.5,1.1l6.1,6.1l2.3,2.3
				c0.3,0.3,0.7,0.5,1.1,0.5c0.4,0,0.8-0.2,1.1-0.5l2.3-2.3l12.1-12.2c0.3-0.3,0.5-0.7,0.5-1.1C1242,639.7,1241.8,639.3,1241.5,639z
				"/>
		</g>
	</g>
	<g class="st9">
		<g>
			<path class="st26" d="M1241.5,673l-2.3-2.3c-0.3-0.3-0.7-0.5-1.1-0.5c-0.4,0-0.8,0.2-1.1,0.5l-11,11.1l-4.9-5
				c-0.3-0.3-0.7-0.5-1.1-0.5c-0.4,0-0.8,0.2-1.1,0.5l-2.3,2.3c-0.3,0.3-0.5,0.7-0.5,1.1c0,0.4,0.2,0.8,0.5,1.1l6.1,6.1l2.3,2.3
				c0.3,0.3,0.7,0.5,1.1,0.5c0.4,0,0.8-0.2,1.1-0.5l2.3-2.3l12.1-12.2c0.3-0.3,0.5-0.7,0.5-1.1C1242,673.7,1241.8,673.3,1241.5,673z
				"/>
		</g>
	</g>
	<g class="st9">
		<g>
			<path class="st26" d="M1241.5,705l-2.3-2.3c-0.3-0.3-0.7-0.5-1.1-0.5c-0.4,0-0.8,0.2-1.1,0.5l-11,11.1l-4.9-5
				c-0.3-0.3-0.7-0.5-1.1-0.5c-0.4,0-0.8,0.2-1.1,0.5l-2.3,2.3c-0.3,0.3-0.5,0.7-0.5,1.1c0,0.4,0.2,0.8,0.5,1.1l6.1,6.1l2.3,2.3
				c0.3,0.3,0.7,0.5,1.1,0.5c0.4,0,0.8-0.2,1.1-0.5l2.3-2.3l12.1-12.2c0.3-0.3,0.5-0.7,0.5-1.1C1242,705.7,1241.8,705.3,1241.5,705z
				"/>
		</g>
	</g>
	<g class="st9">
		<g>
			<path class="st26" d="M1241.5,740l-2.3-2.3c-0.3-0.3-0.7-0.5-1.1-0.5c-0.4,0-0.8,0.2-1.1,0.5l-11,11.1l-4.9-5
				c-0.3-0.3-0.7-0.5-1.1-0.5c-0.4,0-0.8,0.2-1.1,0.5l-2.3,2.3c-0.3,0.3-0.5,0.7-0.5,1.1c0,0.4,0.2,0.8,0.5,1.1l6.1,6.1l2.3,2.3
				c0.3,0.3,0.7,0.5,1.1,0.5c0.4,0,0.8-0.2,1.1-0.5l2.3-2.3l12.1-12.2c0.3-0.3,0.5-0.7,0.5-1.1C1242,740.7,1241.8,740.3,1241.5,740z
				"/>
		</g>
	</g>
</g>
<g id="Botao_Comprar" class="st0">
	<g class="st9">
		<path class="st26" d="M685.6,884H447.4c-9.6,0-17.4-7.8-17.4-17.4v-30.2c0-9.6,7.8-17.4,17.4-17.4h238.2c9.6,0,17.4,7.8,17.4,17.4
			v30.2C703,876.2,695.2,884,685.6,884z"/>
		<text transform="matrix(1 0 0 1 506.0596 860.7227)" class="st27 st18 st28">Comprar</text>
	</g>
	<g class="st9">
		<path class="st26" d="M1078.6,885H840.4c-9.6,0-17.4-7.8-17.4-17.4v-30.2c0-9.6,7.8-17.4,17.4-17.4h238.2
			c9.6,0,17.4,7.8,17.4,17.4v30.2C1096,877.2,1088.2,885,1078.6,885z"/>
		<text transform="matrix(1 0 0 1 899.0596 861.7227)" class="st27 st18 st28">Comprar</text>
	</g>
	<g class="st9">
		<path class="st26" d="M1471.6,885h-238.2c-9.6,0-17.4-7.8-17.4-17.4v-30.2c0-9.6,7.8-17.4,17.4-17.4h238.2
			c9.6,0,17.4,7.8,17.4,17.4v30.2C1489,877.2,1481.2,885,1471.6,885z"/>
		<text transform="matrix(1 0 0 1 1292.0596 861.7227)" class="st27 st18 st28">Comprar</text>
	</g>
</g>
<g id="Texto_Principal" class="st0">
	<text transform="matrix(1 0 0 1 485.1865 130.98)" class="st29 st18 st30">Escolha qual plano de serviço lhe atende mais</text>
	<text transform="matrix(1 0 0 1 760.5781 174.98)" class="st9"><tspan x="0" y="0" class="st27 st31 st32">Leia com mais detalhes a individualidade de </tspan><tspan x="115.8" y="25.2" class="st27 st31 st32">cada plano abaixo.</tspan></text>
</g>
</svg>
