<?xml version="1.0" encoding="utf-8"?>
<!-- Generator: Adobe Illustrator 23.0.0, SVG Export Plug-In . SVG Version: 6.00 Build 0)  -->
<svg version="1.1" id="Camada_1" xmlns="http://www.w3.org/2000/svg" xmlns:xlink="http://www.w3.org/1999/xlink" x="0px" y="0px"
	 viewBox="0 0 690 706" style="enable-background:new 0 0 690 706;" xml:space="preserve">
<style type="text/css">
	.st0{clip-path:url(#SVGID_2_);fill:url(#SVGID_3_);}
</style>
<g>
	<defs>
		<path id="SVGID_1_" d="M328.2,48.3L48.5,328.1c-89.6,89.6-48.6,242.6,73.8,275.3l360.5,96.5c118.8,31.8,229.3-73.2,203.5-193.5
			l-80.7-376.3C578.2,2.7,420.4-43.9,328.2,48.3z"/>
	</defs>
	<clipPath id="SVGID_2_">
		<use xlink:href="#SVGID_1_"  style="overflow:visible;"/>
	</clipPath>
	<linearGradient id="SVGID_3_" gradientUnits="userSpaceOnUse" x1="337.6035" y1="597.5565" x2="383.8957" y2="-57.7802">
		<stop  offset="2.513967e-02" style="stop-color:#151EAF"/>
		<stop  offset="0.6315" style="stop-color:#4B56FF"/>
	</linearGradient>
	<path class="st0" d="M328.2,47.3L48.5,327.1c-89.6,89.6-48.6,242.6,73.8,275.3l360.5,96.5c118.8,31.8,229.3-73.2,203.5-193.5
		l-80.7-376.3C578.2,1.7,420.4-44.9,328.2,47.3z"/>
	<g style="clip-path:url(#SVGID_2_);">
		
			<image style="overflow:visible;" width="1785" height="1038" xlink:href="../../mockup Projeto/Imagens Mockup/Coletivo-Hit-Horizontal-img_Quem_Somos.png"  transform="matrix(0.4266 0 0 0.4266 -43.502 205)">
		</image>
	</g>
</g>
</svg>
