<?xml version="1.0" encoding="iso-8859-1"?>
<!-- Generator: Adobe Illustrator 19.0.0, SVG Export Plug-In . SVG Version: 6.00 Build 0)  -->
<svg version="1.1" id="Layer_1" xmlns="http://www.w3.org/2000/svg" xmlns:xlink="http://www.w3.org/1999/xlink" x="0px" y="0px"
	 viewBox="0 0 512 512" style="enable-background:new 0 0 512 512;" xml:space="preserve">
<circle style="fill:#D35933;" cx="256" cy="256" r="256"/>
<path style="fill:#B54324;" d="M512,256c0-0.883-0.024-1.76-0.033-2.639L393.323,134.716l-179.99,174.151l-94.198,68.922
	l134.177,134.177c0.896,0.009,1.789,0.034,2.688,0.034C397.384,512,512,397.384,512,256z"/>
<path style="fill:#FFFFFF;" d="M378.54,384H133.458c-10.869,0-19.68-8.811-19.68-19.682V147.68c0-10.869,8.811-19.68,19.68-19.68
	H378.54c10.869,0,19.682,8.811,19.682,19.68v216.638C398.222,375.189,389.411,384,378.54,384z"/>
<path style="fill:#D0D1D3;" d="M378.54,128H255.424v256H378.54c10.869,0,19.682-8.811,19.682-19.682V147.682
	C398.222,136.811,389.411,128,378.54,128z"/>
<path style="fill:#386895;" d="M398.222,147.682c0-10.869-8.811-19.682-19.682-19.682H133.46c-10.871,0-19.682,8.811-19.682,19.682
	v20.744h284.444V147.682z"/>
<path style="fill:#273B7A;" d="M398.222,147.682c0-10.869-8.811-19.682-19.682-19.682H255.424v40.426h142.798V147.682z"/>
<path style="fill:#808183;" d="M113.988,367.049c1.333,9.575,9.528,16.951,19.47,16.951H378.54c9.942,0,18.137-7.378,19.47-16.951
	L113.988,367.049L113.988,367.049z"/>
<path style="fill:#59595B;" d="M255.426,367.049V384h123.116c9.942,0,18.137-7.378,19.47-16.951L255.426,367.049L255.426,367.049z"
	/>
<path style="fill:#D0D1D3;" d="M373.226,158.599H138.774c-4.046,0-7.327-3.281-7.327-7.327l0,0c0-4.046,3.281-7.327,7.327-7.327
	h234.451c4.046,0,7.327,3.281,7.327,7.327l0,0C380.552,155.319,377.272,158.599,373.226,158.599z"/>
<path style="fill:#A6A8AA;" d="M373.226,143.946h-117.8v14.653h117.8c4.046,0,7.327-3.281,7.327-7.327
	S377.272,143.946,373.226,143.946z"/>
<rect id="SVGCleanerId_0" x="142.222" y="312.889" style="fill:#FFC61B;" width="28.444" height="28.444"/>
<g>
	<rect id="SVGCleanerId_0_1_" x="142.222" y="312.889" style="fill:#FFC61B;" width="28.444" height="28.444"/>
</g>
<rect x="170.667" y="312.889" style="fill:#EAA22F;" width="28.444" height="28.444"/>
<rect x="199.111" y="312.889" style="fill:#E09112;" width="28.444" height="28.444"/>
<rect x="227.556" y="312.889" style="fill:#FF5419;" width="28.444" height="28.444"/>
<rect x="256" y="312.889" style="fill:#C92F00;" width="28.444" height="28.444"/>
<rect x="284.444" y="312.889" style="fill:#930000;" width="28.444" height="28.444"/>
<rect x="312.889" y="312.889" style="fill:#601772;" width="28.444" height="28.444"/>
<rect x="341.333" y="312.889" style="fill:#273B7A;" width="28.444" height="28.444"/>
<rect x="142.222" y="199.111" style="fill:#930000;" width="85.333" height="85.333"/>
<rect x="284.444" y="199.111" style="fill:#A6A8AA;" width="85.333" height="85.333"/>
<path style="fill:#71E2EF;" d="M247.158,318.474l-7.278,2.331c-2.834,0.907-5.508-1.767-4.601-4.603l2.329-7.28
	c1.369-4.275,3.737-8.163,6.913-11.338l62.992-63.002l13.976,13.976l-62.992,63.002
	C255.321,314.735,251.433,317.106,247.158,318.474z"/>
<path style="fill:#38C6D9;" d="M236.154,319.878c0.908,0.927,2.296,1.384,3.725,0.927l7.278-2.331
	c4.275-1.369,8.161-3.739,11.336-6.913l62.991-63.002l-7.006-7.006L236.154,319.878z"/>
<path style="fill:#C92F00;" d="M323.148,256.386l-3.512-3.512l18.291-18.294c4.541-4.541,4.541-11.904,0-16.443
	c-4.541-4.541-11.902-4.539-16.441,0.002l-18.291,18.294l-3.512-3.512c-1.012-1.012-2.653-1.012-3.665,0l-3.734,3.734
	c-1.012,1.012-1.012,2.653,0,3.665l23.464,23.464c1.012,1.012,2.653,1.012,3.665,0l3.734-3.734
	C324.16,259.039,324.16,257.398,323.148,256.386z"/>
<path style="fill:#930000;" d="M337.929,218.138c-0.005-0.005-0.012-0.01-0.017-0.016l-33.914,33.913l11.752,11.752
	c1.012,1.012,2.653,1.012,3.665,0l3.734-3.734c1.012-1.012,1.012-2.653,0-3.665l-3.512-3.512l18.291-18.294
	C342.468,230.04,342.468,222.677,337.929,218.138z"/>
<g>
</g>
<g>
</g>
<g>
</g>
<g>
</g>
<g>
</g>
<g>
</g>
<g>
</g>
<g>
</g>
<g>
</g>
<g>
</g>
<g>
</g>
<g>
</g>
<g>
</g>
<g>
</g>
<g>
</g>
</svg>
