<?xml version="1.0" encoding="utf-8"?>
<!-- Generator: Adobe Illustrator 23.0.0, SVG Export Plug-In . SVG Version: 6.00 Build 0)  -->
<svg version="1.1" id="Camada_1" xmlns="http://www.w3.org/2000/svg" xmlns:xlink="http://www.w3.org/1999/xlink" x="0px" y="0px"
	 viewBox="0 0 505 487" style="enable-background:new 0 0 505 487;" xml:space="preserve">
<style type="text/css">
	.st0{clip-path:url(#SVGID_2_);fill:url(#SVGID_3_);}
</style>
<g>
	<defs>
		<path id="SVGID_1_" d="M487.9,237.3l-42.3,84.1L404,404c-47.6,94.6-175.1,112.1-246.5,34L43.9,313.7
			C-43.7,217.8,7.2,63,134.6,37.7L309.6,3C443.4-23.6,549.2,115.4,487.9,237.3z"/>
	</defs>
	<clipPath id="SVGID_2_">
		<use xlink:href="#SVGID_1_"  style="overflow:visible;"/>
	</clipPath>
	
		<linearGradient id="SVGID_3_" gradientUnits="userSpaceOnUse" x1="7.3021" y1="128.3679" x2="461.9876" y2="321.3705" gradientTransform="matrix(0.9808 -0.1948 0.1948 0.9808 -38.0785 55.2146)">
		<stop  offset="0.2534" style="stop-color:#5741E4"/>
		<stop  offset="0.4712" style="stop-color:#5544E4"/>
		<stop  offset="0.612" style="stop-color:#504CE6"/>
		<stop  offset="0.731" style="stop-color:#465BE9"/>
		<stop  offset="0.8379" style="stop-color:#3970EC"/>
		<stop  offset="0.9357" style="stop-color:#288BF1"/>
		<stop  offset="0.9686" style="stop-color:#2196F3"/>
	</linearGradient>
	<path class="st0" d="M486.8,238.4l-42.3,84.1l-41.6,82.7c-47.6,94.6-175.1,112.1-246.5,34L42.9,314.8
		c-87.6-95.9-36.8-250.7,90.6-276L308.6,4C442.4-22.5,548.1,116.5,486.8,238.4z"/>
	<g transform="matrix(1 0 0 1 -1.907349e-06 0)" style="clip-path:url(#SVGID_2_);">
		
			<image style="overflow:visible;" width="1827" height="1206" xlink:href="../../mockup Projeto/Imagens Mockup/Coletivo-Hit-Horizontal-img_Quem_Somos-2.png"  transform="matrix(0.3086 0 0 0.3086 -30 74)">
		</image>
	</g>
</g>
</svg>
