<?xml version="1.0" encoding="utf-8"?>
<!-- Generator: Adobe Illustrator 23.0.0, SVG Export Plug-In . SVG Version: 6.00 Build 0)  -->
<svg version="1.1" id="Layer_1" xmlns="http://www.w3.org/2000/svg" xmlns:xlink="http://www.w3.org/1999/xlink" x="0px" y="0px"
	 viewBox="0 0 473.9 473.9" style="enable-background:new 0 0 473.9 473.9;" xml:space="preserve">
<style type="text/css">
	.st0{fill:#4A86C5;}
	.st1{fill:#377CA5;}
	.st2{fill:#FFFFFF;}
</style>
<circle class="st0" cx="237" cy="237" r="237"/>
<path class="st0" d="M462.6,309.3c0.9-2.7,1.7-5.5,2.4-8.2C464.3,303.8,463.5,306.6,462.6,309.3z"/>
<g>
	<polygon class="st1" points="465.1,301 465.1,301 465.1,301.1 	"/>
</g>
<path class="st2" d="M358.6,230.5v87.9h-50.9v-82c0-20.6-7.4-34.7-25.8-34.7c-14.1,0-22.5,9.5-26.1,18.6c-1.3,3.3-1.7,7.8-1.7,12.4
	v85.6h-51c0,0,0.7-138.9,0-153.3h51v21.7c-0.1,0.2-0.2,0.3-0.3,0.5h0.3v-0.5c6.8-10.4,18.9-25.3,45.9-25.3
	C333.4,161.5,358.6,183.4,358.6,230.5z M149.7,91.2c-17.4,0-28.8,11.4-28.8,26.5c0,14.7,11.1,26.5,28.2,26.5h0.3
	c17.8,0,28.8-11.8,28.8-26.5C177.9,102.6,167.1,91.2,149.7,91.2z M123.9,318.3h50.9V165.1h-50.9V318.3z"/>
</svg>
